<?xml version="1.0" encoding="UTF-8"?>
<svg id="Vrstva_1" data-name="Vrstva 1" xmlns="http://www.w3.org/2000/svg" width="82.56mm" height="82.56mm" viewBox="0 0 234.02 234.02">
  <defs>
    <style>
      .cls-1, .cls-2 {
        stroke-miterlimit: 10;
      }

      .cls-1, .cls-2, .cls-3 {
        fill: none;
        stroke: #380687;
        stroke-width: 10px;
      }

      .cls-2 {
        stroke-linecap: round;
      }

      .cls-3 {
        stroke-linejoin: round;
      }
    </style>
  </defs>
  <path class="cls-1" d="M25.67,107.99c.55-46.67,43.7-82.76,91.34-82.76,50.69,0,91.78,41.09,91.78,91.78s-41.09,91.78-91.78,91.78S25.62,166.51,25.23,116.15"/>
  <circle class="cls-1" cx="117.01" cy="117.01" r="112.01"/>
  <polyline class="cls-3" points="25.29 121.15 70.32 121.15 82.06 95.48 98.34 153.39 116.33 65.77 131.68 136.16 145.92 100.89 155.93 121.15 194.28 121.15"/>
  <line class="cls-2" x1="117.01" y1="25.23" x2="117.01" y2="43.17"/>
  <line class="cls-2" x1="181.04" y1="52.7" x2="168.35" y2="65.39"/>
  <line class="cls-2" x1="50.55" y1="52.7" x2="63.23" y2="65.39"/>
  <line class="cls-2" x1="116.66" y1="208.79" x2="116.66" y2="190.85"/>
  <line class="cls-2" x1="52.34" y1="181.32" x2="65.03" y2="168.63"/>
  <line class="cls-2" x1="181.04" y1="181.32" x2="168.35" y2="168.63"/>
</svg>